<?xml version="1.0" encoding="UTF-8"?>
<svg xmlns="http://www.w3.org/2000/svg" xmlns:xlink="http://www.w3.org/1999/xlink" width="90px" height="120px" viewBox="0 0 120 60" version="1.1">
<g id="surface1">
<path style=" stroke:none;fill-rule:nonzero;fill:rgb(7.450981%,2.745098%,32.941177%);fill-opacity:1;" d="M 10.644531 53.960938 C 8.355469 53.960938 6.03125 53.488281 4.574219 52.558594 L 4.574219 57.566406 L 0 57.566406 L 0 45.210938 L 4.136719 45.210938 L 4.300781 46.566406 C 5.71875 45.519531 8.242188 44.96875 10.644531 44.972656 C 15.253906 44.972656 18.65625 46.902344 18.65625 49.464844 C 18.65625 52.027344 15.253906 53.960938 10.644531 53.960938 Z M 9.226562 46.667969 C 6.558594 46.667969 4.378906 47.714844 4.378906 49.46875 C 4.378906 51.222656 6.542969 52.265625 9.226562 52.265625 C 11.90625 52.265625 14.066406 51.222656 14.066406 49.46875 C 14.066406 47.714844 11.90625 46.667969 9.226562 46.667969 Z M 35.890625 53.726562 L 35.734375 52.367188 C 34.316406 53.410156 31.792969 53.960938 29.390625 53.960938 C 24.777344 53.960938 21.382812 52.03125 21.382812 49.46875 C 21.382812 46.90625 24.773438 44.976562 29.390625 44.976562 C 31.792969 44.976562 34.316406 45.53125 35.734375 46.570312 L 35.894531 45.210938 L 40.03125 45.210938 L 40.03125 53.726562 Z M 30.808594 46.667969 C 28.140625 46.667969 25.960938 47.714844 25.960938 49.46875 C 25.960938 51.222656 28.128906 52.265625 30.808594 52.265625 C 33.492188 52.265625 35.65625 51.222656 35.65625 49.46875 C 35.65625 47.714844 33.492188 46.675781 30.808594 46.667969 Z M 56.027344 53.726562 L 56.027344 49.011719 C 56.027344 47.355469 54.882812 46.804688 52.796875 46.804688 C 50.628906 46.804688 48.261719 47.789062 48.261719 48.972656 L 48.261719 53.722656 L 43.691406 53.722656 L 43.691406 45.210938 L 47.882812 45.210938 L 48.074219 46.789062 C 49.21875 45.707031 51.78125 44.976562 54.382812 44.976562 C 58.914062 44.976562 60.609375 46.554688 60.609375 48.664062 L 60.609375 53.726562 Z M 77.359375 53.726562 L 77.203125 52.367188 C 75.785156 53.414062 73.261719 53.964844 70.855469 53.964844 C 66.246094 53.964844 62.847656 52.03125 62.847656 49.472656 C 62.847656 46.910156 66.238281 44.976562 70.855469 44.976562 C 73.140625 44.976562 75.46875 45.453125 76.925781 46.378906 L 76.925781 41.90625 L 81.496094 41.90625 L 81.496094 53.730469 Z M 72.28125 46.675781 C 69.597656 46.675781 67.429688 47.722656 67.429688 49.476562 C 67.429688 51.230469 69.59375 52.273438 72.277344 52.273438 C 74.957031 52.273438 77.125 51.230469 77.125 49.476562 C 77.125 47.722656 74.957031 46.675781 72.28125 46.675781 Z M 98.675781 53.730469 L 98.519531 52.371094 C 97.101562 53.414062 94.578125 53.964844 92.175781 53.964844 C 87.5625 53.964844 84.167969 52.035156 84.167969 49.472656 C 84.167969 46.910156 87.558594 44.980469 92.175781 44.980469 C 94.578125 44.980469 97.101562 45.535156 98.519531 46.578125 L 98.679688 45.21875 L 102.828125 45.21875 L 102.828125 53.730469 Z M 93.59375 46.675781 C 90.914062 46.675781 88.746094 47.722656 88.746094 49.476562 C 88.746094 51.230469 90.914062 52.273438 93.59375 52.273438 C 96.273438 52.273438 98.441406 51.230469 98.441406 49.476562 C 98.441406 47.722656 96.277344 46.675781 93.59375 46.675781 Z M 112.945312 54.007812 C 110.539062 53.996094 108.183594 53.664062 106.125 53.039062 L 106.875 51.460938 C 108.253906 51.875 110.34375 52.40625 112.867188 52.40625 C 114.679688 52.40625 115.941406 52.128906 115.941406 51.421875 C 115.941406 50.808594 114.640625 50.59375 112.3125 50.316406 C 108.140625 49.863281 106.640625 48.761719 106.640625 47.558594 C 106.640625 46.222656 108.730469 44.957031 113.34375 44.957031 C 116.140625 44.957031 118.582031 45.570312 119.125 45.726562 L 118.382812 47.234375 C 116.894531 46.785156 115.195312 46.539062 113.460938 46.523438 C 111.605469 46.523438 110.699219 46.839844 110.699219 47.351562 C 110.699219 47.921875 111.882812 48.179688 113.695312 48.394531 C 118.1875 48.867188 120 49.910156 120 51.054688 C 120 52.882812 117.320312 54.007812 112.945312 54.007812 Z M 49.160156 4.628906 L 57.28125 4.628906 L 57.28125 13.0625 L 49.160156 13.0625 Z M 49.160156 21.949219 L 57.28125 21.949219 L 57.28125 30.378906 L 49.160156 30.378906 Z M 49.160156 21.949219 "/>
<path style=" stroke:none;fill-rule:nonzero;fill:rgb(100%,79.215688%,0%);fill-opacity:1;" d="M 49.160156 15.523438 L 57.28125 15.523438 L 57.28125 19.5 L 49.160156 19.5 Z M 49.160156 15.523438 "/>
<path style=" stroke:none;fill-rule:nonzero;fill:rgb(7.450981%,2.745098%,32.941177%);fill-opacity:1;" d="M 36.113281 11.5625 L 44.234375 11.5625 L 44.234375 39.589844 L 36.113281 39.589844 Z M 61.9375 28.90625 L 70.058594 28.90625 L 70.058594 37.335938 L 61.9375 37.335938 Z M 61.9375 11.570312 L 70.058594 11.570312 L 70.058594 20.003906 L 61.9375 20.003906 Z M 61.9375 11.570312 "/>
<path style=" stroke:none;fill-rule:nonzero;fill:rgb(90.588236%,1.568628%,53.333336%);fill-opacity:1;" d="M 61.9375 22.464844 L 70.058594 22.464844 L 70.058594 26.441406 L 61.9375 26.441406 Z M 61.9375 22.464844 "/>
<path style=" stroke:none;fill-rule:nonzero;fill:rgb(7.450981%,2.745098%,32.941177%);fill-opacity:1;" d="M 74.710938 2.433594 L 82.832031 2.433594 L 82.832031 30.460938 L 74.710938 30.460938 Z M 74.710938 2.433594 "/>
</g>
</svg>
