<?xml version="1.0" encoding="UTF-8"?>
<svg xmlns="http://www.w3.org/2000/svg" xmlns:xlink="http://www.w3.org/1999/xlink" width="70px" height="80px" viewBox="0 0 120 60" version="1.1">
<g id="surface1">
<path style=" stroke:none;fill-rule:nonzero;fill:rgb(6.666667%,61.56863%,100%);fill-opacity:1;" d="M 30.761719 1.304688 L 89.046875 1.304688 C 90.65625 1.304688 91.960938 1.957031 91.960938 2.761719 L 91.960938 31.902344 C 91.960938 32.707031 90.65625 33.359375 89.046875 33.359375 L 30.761719 33.359375 C 29.152344 33.359375 27.847656 32.707031 27.847656 31.902344 L 27.847656 2.761719 C 27.847656 1.957031 29.152344 1.304688 30.761719 1.304688 Z M 30.761719 1.304688 "/>
<path style=" stroke:none;fill-rule:nonzero;fill:rgb(31.37255%,40.392157%,51.764709%);fill-opacity:1;" d="M 30.671875 39.1875 C 32.210938 39.1875 33.460938 39.8125 33.460938 40.582031 L 33.460938 54.519531 C 33.460938 55.292969 32.210938 55.914062 30.671875 55.914062 C 29.132812 55.914062 27.882812 55.292969 27.882812 54.519531 L 27.882812 40.582031 C 27.882812 39.8125 29.132812 39.1875 30.671875 39.1875 Z M 30.671875 39.1875 "/>
<path style=" stroke:none;fill-rule:nonzero;fill:rgb(31.37255%,40.392157%,51.764709%);fill-opacity:1;" d="M 89.40625 39.1875 C 90.945312 39.1875 92.195312 39.8125 92.195312 40.582031 L 92.195312 54.519531 C 92.195312 55.292969 90.945312 55.914062 89.40625 55.914062 C 87.867188 55.914062 86.617188 55.292969 86.617188 54.519531 L 86.617188 40.582031 C 86.617188 39.8125 87.867188 39.1875 89.40625 39.1875 Z M 89.40625 39.1875 "/>
<path style=" stroke:none;fill-rule:nonzero;fill:rgb(31.37255%,40.392157%,51.764709%);fill-opacity:1;" d="M 11.152344 41.976562 C 9.097656 41.976562 7.085938 42.277344 5.367188 42.839844 C 4.863281 42.226562 3.5625 41.875 2.257812 42 C 0.953125 42.128906 0.0078125 42.695312 0 43.359375 L 0 57.300781 C 0 58.070312 1.25 58.695312 2.789062 58.695312 C 4.328125 58.695312 5.574219 58.070312 5.574219 57.300781 L 5.574219 55.113281 C 7.246094 55.636719 9.179688 55.914062 11.152344 55.914062 C 17.308594 55.914062 22.324219 53.242188 22.324219 49.941406 L 22.324219 47.949219 C 22.304688 44.648438 17.316406 41.976562 11.152344 41.976562 Z M 16.726562 50.085938 C 16.726562 51.765625 14.230469 53.128906 11.152344 53.128906 C 8.070312 53.128906 5.574219 51.765625 5.574219 50.085938 L 5.574219 47.804688 C 5.574219 46.125 8.070312 44.765625 11.152344 44.765625 C 14.230469 44.765625 16.726562 46.125 16.726562 47.804688 Z M 16.726562 50.085938 "/>
<path style=" stroke:none;fill-rule:nonzero;fill:rgb(31.37255%,40.392157%,51.764709%);fill-opacity:1;" d="M 50.1875 41.976562 C 44.027344 41.976562 39.015625 44.648438 39.015625 47.949219 L 39.015625 49.941406 C 39.015625 53.242188 44.007812 55.914062 50.1875 55.914062 C 56.34375 55.914062 61.355469 53.242188 61.355469 49.941406 L 61.355469 47.949219 C 61.339844 44.648438 56.34375 41.976562 50.1875 41.976562 Z M 55.761719 50.085938 C 55.761719 51.765625 53.265625 53.128906 50.1875 53.128906 C 47.105469 53.128906 44.609375 51.765625 44.609375 50.085938 L 44.609375 47.804688 C 44.609375 46.125 47.105469 44.765625 50.1875 44.765625 C 53.265625 44.765625 55.761719 46.125 55.761719 47.804688 Z M 55.761719 50.085938 "/>
<path style=" stroke:none;fill-rule:nonzero;fill:rgb(31.37255%,40.392157%,51.764709%);fill-opacity:1;" d="M 78.066406 53.128906 C 74.988281 53.125 72.492188 51.878906 72.488281 50.339844 L 72.488281 44.753906 L 78.066406 44.753906 C 79.605469 44.753906 80.851562 44.128906 80.851562 43.359375 C 80.851562 42.589844 79.605469 41.964844 78.066406 41.964844 L 72.488281 41.964844 L 72.488281 40.570312 C 72.488281 39.800781 71.242188 39.179688 69.703125 39.179688 C 68.160156 39.179688 66.914062 39.800781 66.914062 40.570312 L 66.914062 50.328125 C 66.914062 53.414062 71.914062 55.914062 78.085938 55.914062 C 79.625 55.914062 80.871094 55.292969 80.871094 54.519531 C 80.871094 53.75 79.625 53.128906 78.085938 53.128906 Z M 78.066406 53.128906 "/>
<path style=" stroke:none;fill-rule:nonzero;fill:rgb(31.37255%,40.392157%,51.764709%);fill-opacity:1;" d="M 118.324219 42.085938 C 116.910156 41.785156 115.269531 42.109375 114.660156 42.816406 L 108.882812 49.558594 L 103.101562 42.816406 C 102.722656 42.347656 101.871094 42.019531 100.867188 41.957031 C 99.867188 41.890625 98.875 42.105469 98.273438 42.511719 C 97.675781 42.917969 97.5625 43.453125 97.976562 43.914062 L 105.851562 53.097656 L 104.914062 54.1875 C 104.066406 55.207031 102.097656 55.882812 99.890625 55.90625 C 98.351562 55.917969 97.117188 56.546875 97.136719 57.316406 C 97.152344 58.085938 98.414062 58.703125 99.957031 58.695312 L 100.023438 58.695312 C 104.414062 58.640625 108.332031 57.300781 110.035156 55.277344 L 119.769531 43.917969 C 120.382812 43.214844 119.734375 42.394531 118.324219 42.085938 Z M 118.324219 42.085938 "/>
<path style=" stroke:none;fill-rule:nonzero;fill:rgb(14.509805%,99.607843%,99.215686%);fill-opacity:1;" d="M 68.648438 14.417969 C 68.648438 13.613281 67.34375 12.960938 65.734375 12.960938 C 64.125 12.960938 62.820312 13.613281 62.820312 14.417969 C 62.820312 15.222656 64.125 15.875 65.734375 15.875 C 67.34375 15.875 68.648438 15.222656 68.648438 14.417969 Z M 68.648438 14.417969 "/>
<path style=" stroke:none;fill-rule:nonzero;fill:rgb(14.509805%,99.607843%,99.215686%);fill-opacity:1;" d="M 80.304688 8.589844 C 80.304688 7.785156 79 7.132812 77.390625 7.132812 C 75.78125 7.132812 74.476562 7.785156 74.476562 8.589844 C 74.476562 9.394531 75.78125 10.046875 77.390625 10.046875 C 79 10.046875 80.304688 9.394531 80.304688 8.589844 Z M 80.304688 8.589844 "/>
<path style=" stroke:none;fill-rule:nonzero;fill:rgb(14.509805%,99.607843%,99.215686%);fill-opacity:1;" d="M 68.648438 8.589844 C 68.648438 7.785156 67.34375 7.132812 65.734375 7.132812 C 64.125 7.132812 62.820312 7.785156 62.820312 8.589844 C 62.820312 9.394531 64.125 10.046875 65.734375 10.046875 C 67.34375 10.046875 68.648438 9.394531 68.648438 8.589844 Z M 68.648438 8.589844 "/>
<path style=" stroke:none;fill-rule:nonzero;fill:rgb(14.509805%,99.607843%,99.215686%);fill-opacity:1;" d="M 56.992188 8.589844 C 56.992188 7.785156 55.6875 7.132812 54.078125 7.132812 C 52.46875 7.132812 51.164062 7.785156 51.164062 8.589844 C 51.164062 9.394531 52.46875 10.046875 54.078125 10.046875 C 55.6875 10.046875 56.992188 9.394531 56.992188 8.589844 Z M 56.992188 8.589844 "/>
<path style=" stroke:none;fill-rule:nonzero;fill:rgb(14.509805%,99.607843%,99.215686%);fill-opacity:1;" d="M 45.335938 8.589844 C 45.335938 7.785156 44.03125 7.132812 42.421875 7.132812 C 40.8125 7.132812 39.507812 7.785156 39.507812 8.589844 C 39.507812 9.394531 40.8125 10.046875 42.421875 10.046875 C 44.03125 10.046875 45.335938 9.394531 45.335938 8.589844 Z M 45.335938 8.589844 "/>
<path style=" stroke:none;fill-rule:nonzero;fill:rgb(14.509805%,99.607843%,99.215686%);fill-opacity:1;" d="M 45.335938 14.417969 C 45.335938 13.613281 44.03125 12.960938 42.421875 12.960938 C 40.8125 12.960938 39.507812 13.613281 39.507812 14.417969 C 39.507812 15.222656 40.8125 15.875 42.421875 15.875 C 44.03125 15.875 45.335938 15.222656 45.335938 14.417969 Z M 45.335938 14.417969 "/>
<path style=" stroke:none;fill-rule:nonzero;fill:rgb(100%,100%,100%);fill-opacity:1;" d="M 42.421875 18.789062 C 40.8125 18.789062 39.507812 19.441406 39.507812 20.246094 L 39.507812 26.074219 C 39.507812 26.878906 40.8125 27.53125 42.421875 27.53125 C 44.03125 27.53125 45.335938 26.878906 45.335938 26.074219 L 45.335938 20.246094 C 45.335938 19.441406 44.03125 18.789062 42.421875 18.789062 Z M 42.421875 18.789062 "/>
<path style=" stroke:none;fill-rule:nonzero;fill:rgb(100%,100%,100%);fill-opacity:1;" d="M 65.734375 18.789062 C 64.125 18.789062 62.820312 19.441406 62.820312 20.246094 L 62.820312 26.074219 C 62.820312 26.878906 64.125 27.53125 65.734375 27.53125 C 67.34375 27.53125 68.648438 26.878906 68.648438 26.074219 L 68.648438 20.246094 C 68.648438 19.441406 67.34375 18.789062 65.734375 18.789062 Z M 65.734375 18.789062 "/>
<path style=" stroke:none;fill-rule:nonzero;fill:rgb(100%,100%,100%);fill-opacity:1;" d="M 54.078125 12.960938 C 52.46875 12.960938 51.164062 13.613281 51.164062 14.417969 L 51.164062 26.074219 C 51.164062 26.878906 52.46875 27.53125 54.078125 27.53125 C 55.6875 27.53125 56.992188 26.878906 56.992188 26.074219 L 56.992188 14.417969 C 56.992188 13.613281 55.6875 12.960938 54.078125 12.960938 Z M 54.078125 12.960938 "/>
<path style=" stroke:none;fill-rule:nonzero;fill:rgb(100%,100%,100%);fill-opacity:1;" d="M 77.390625 12.960938 C 75.78125 12.960938 74.476562 13.613281 74.476562 14.417969 L 74.476562 26.074219 C 74.476562 26.878906 75.78125 27.53125 77.390625 27.53125 C 79 27.53125 80.304688 26.878906 80.304688 26.074219 L 80.304688 14.417969 C 80.304688 13.613281 79 12.960938 77.390625 12.960938 Z M 77.390625 12.960938 "/>
</g>
</svg>
