<?xml version="1.0" encoding="UTF-8"?>
<svg xmlns="http://www.w3.org/2000/svg" xmlns:xlink="http://www.w3.org/1999/xlink" width="60px" height="120px" viewBox="0 0 120 60" version="1.1">
<g id="surface1">
<path style=" stroke:none;fill-rule:nonzero;fill:rgb(0%,0%,0%);fill-opacity:1;" d="M 104.769531 19.285156 L 106.941406 19.285156 C 107.46875 19.285156 107.90625 19.503906 107.90625 19.777344 L 107.90625 29.09375 L 104.769531 29.574219 L 103.785156 19.777344 C 103.785156 19.503906 104.21875 19.285156 104.769531 19.285156 Z M 110.835938 21.996094 L 113.011719 21.996094 C 113.535156 21.996094 113.96875 22.214844 113.96875 22.488281 L 113.96875 28.789062 L 110.835938 29.273438 L 109.851562 22.488281 C 109.851562 22.203125 110.285156 21.996094 110.835938 21.996094 Z M 116.863281 25.453125 L 119.015625 25.453125 C 119.566406 25.453125 120 25.671875 120 25.949219 L 120 27.742188 L 116.863281 28.222656 L 115.878906 25.9375 Z M 98.71875 18.386719 L 100.875 18.386719 L 101.859375 20.675781 L 98.699219 21.148438 L 97.71875 18.878906 Z M 98.71875 21.996094 L 100.875 21.996094 L 101.859375 24.132812 L 98.699219 24.613281 L 97.71875 22.488281 Z M 98.71875 25.464844 L 100.875 25.464844 L 101.859375 28.648438 L 98.699219 29.128906 L 97.71875 25.949219 Z M 92.519531 17.632812 L 94.695312 17.632812 L 95.660156 20.96875 L 92.523438 21.457031 L 91.539062 18.121094 Z M 92.519531 22.449219 L 94.695312 22.449219 L 95.660156 28.347656 L 92.523438 28.828125 L 91.539062 22.941406 Z M 86.5 16.734375 L 88.675781 16.734375 L 89.65625 28.648438 L 86.5 29.128906 L 85.515625 17.214844 Z M 86.5 42.171875 L 88.675781 42.171875 L 89.65625 44.457031 L 86.5 44.9375 L 85.515625 42.652344 Z M 80.300781 39.761719 L 82.476562 39.761719 L 83.453125 44.449219 L 80.320312 44.9375 L 79.355469 40.25 Z M 80.300781 26.96875 L 82.476562 26.96875 L 83.453125 30.292969 L 80.320312 30.792969 L 79.355469 27.457031 Z M 80.300781 15.976562 L 82.476562 15.976562 L 83.453125 25.484375 L 80.320312 25.976562 L 79.355469 16.46875 Z M 74.199219 16.128906 L 76.371094 16.128906 L 77.355469 21.875 L 74.195312 22.355469 L 73.234375 16.621094 Z M 74.199219 23.359375 L 76.371094 23.359375 L 77.355469 39.183594 L 74.195312 39.675781 L 73.234375 23.839844 Z M 74.199219 40.667969 L 76.371094 40.667969 L 77.355469 44 L 74.195312 44.484375 L 73.234375 41.148438 Z M 68.148438 16.574219 L 70.300781 16.574219 L 71.285156 29.386719 L 68.128906 29.878906 L 67.164062 17.074219 Z M 68.148438 30.878906 L 70.300781 30.878906 L 71.285156 41.140625 L 68.128906 41.632812 L 67.164062 31.371094 Z M 62.066406 16.128906 L 64.238281 16.128906 L 65.199219 24.566406 L 62.066406 25.058594 L 61.078125 16.628906 Z M 62.066406 26.070312 L 64.238281 26.070312 L 65.199219 33.164062 L 62.066406 33.648438 L 61.078125 26.550781 Z M 62.066406 34.640625 L 64.238281 34.640625 L 65.199219 38.125 L 62.066406 38.617188 L 61.078125 35.128906 Z M 55.964844 15.835938 L 58.136719 15.835938 L 59.113281 19.917969 L 55.941406 20.398438 L 54.960938 16.316406 Z M 55.964844 21.402344 L 58.136719 21.402344 L 59.113281 35.71875 L 55.941406 36.207031 L 54.960938 21.882812 Z M 49.839844 41.859375 L 52.011719 41.859375 L 52.996094 44.4375 L 49.839844 44.929688 L 48.875 42.351562 Z M 49.839844 15.210938 L 52.011719 15.210938 L 52.996094 28.488281 L 49.839844 28.96875 L 48.875 15.710938 Z M 49.839844 29.972656 L 52.011719 29.972656 L 52.996094 35.707031 L 49.839844 36.199219 L 48.875 30.449219 Z M 43.734375 39.609375 L 45.90625 39.609375 L 46.871094 44.4375 L 43.734375 44.929688 L 42.75 40.09375 Z M 43.734375 24.546875 L 45.90625 24.546875 L 46.871094 35.714844 L 43.734375 36.199219 L 42.75 25.039062 Z M 43.734375 15.0625 L 45.90625 15.0625 L 46.871094 23.066406 L 43.734375 23.554688 L 42.75 15.550781 Z M 37.628906 15.210938 L 39.804688 15.210938 L 40.785156 17.5 L 37.628906 17.980469 L 36.660156 15.703125 Z M 37.628906 18.832031 L 39.804688 18.832031 L 40.785156 33.164062 L 37.628906 33.648438 L 36.664062 19.324219 Z M 37.628906 34.640625 L 39.804688 34.640625 L 40.785156 38.871094 L 37.628906 39.363281 L 36.664062 35.121094 Z M 37.628906 40.355469 L 39.804688 40.355469 L 40.785156 43.238281 L 37.628906 43.730469 L 36.664062 40.847656 Z M 31.523438 16.425781 L 33.695312 16.425781 L 34.660156 25.929688 L 31.519531 26.414062 L 30.539062 16.914062 Z M 31.523438 27.414062 L 33.695312 27.414062 L 34.660156 29.996094 L 31.519531 30.484375 L 30.539062 27.894531 Z M 31.523438 31.175781 L 33.675781 31.175781 L 34.660156 40.984375 L 31.523438 41.472656 L 30.539062 31.664062 Z M 25.089844 23.941406 L 27.890625 23.941406 L 28.550781 31.191406 L 25.109375 31.53125 L 24.429688 24.292969 Z M 25.089844 32.523438 L 27.890625 32.523438 L 28.550781 39.070312 L 25.109375 39.410156 L 24.429688 32.882812 Z M 25.089844 17.621094 L 27.890625 17.621094 L 28.550781 22.761719 L 25.109375 23.101562 L 24.429688 17.960938 Z M 19.003906 19.113281 L 21.765625 19.113281 L 22.445312 26.65625 L 19.003906 26.984375 L 18.324219 19.445312 Z M 19.003906 27.863281 L 21.765625 27.863281 L 22.445312 37.964844 L 18.984375 38.304688 L 18.324219 28.214844 Z M 13.164062 42.171875 L 15.339844 42.171875 L 16.324219 44.457031 L 13.191406 44.9375 L 12.21875 42.652344 Z M 12.863281 35.765625 L 15.679688 35.765625 L 16.359375 39.261719 L 12.878906 39.601562 L 12.21875 36.105469 Z M 12.863281 23.953125 L 15.679688 23.953125 L 16.359375 34.46875 L 12.878906 34.808594 L 12.21875 24.28125 Z M 6.800781 38.828125 L 9.574219 38.828125 L 10.253906 44.597656 L 6.773438 44.9375 L 6.101562 39.164062 Z M 7.101562 30.765625 L 9.253906 30.765625 L 10.238281 37.511719 L 7.078125 38.003906 L 6.101562 31.246094 Z M 0.699219 37.503906 L 3.460938 37.503906 C 3.835938 37.503906 4.140625 37.652344 4.140625 37.84375 L 4.140625 42.972656 C 4.140625 43.164062 3.839844 43.3125 3.460938 43.3125 L 0.679688 43.3125 L 0 37.84375 C 0 37.65625 0.300781 37.503906 0.679688 37.503906 Z M 0.699219 37.503906 "/>
</g>
</svg>
