<?xml version="1.0" encoding="UTF-8"?>
<svg xmlns="http://www.w3.org/2000/svg" xmlns:xlink="http://www.w3.org/1999/xlink" width="90px" height="30px" viewBox="0 0 120 60" version="1.1">
<g id="surface1">
<path style=" stroke:none;fill-rule:nonzero;fill:rgb(0.392157%,65.490198%,10.980392%);fill-opacity:1;" d="M 39.765625 46.527344 C 39.023438 46.511719 38.285156 46.394531 37.550781 46.171875 C 36.757812 45.953125 35.972656 45.640625 35.195312 45.238281 L 35.195312 42.789062 C 35.964844 43.183594 36.742188 43.496094 37.527344 43.722656 C 38.238281 43.941406 38.957031 44.058594 39.679688 44.074219 C 40.675781 44.203125 41.667969 43.683594 42.511719 42.59375 C 43.164062 41.617188 43.53125 40.03125 43.492188 38.378906 C 43.53125 36.632812 43.128906 34.96875 42.425781 33.984375 C 42.082031 33.476562 41.707031 33.054688 41.3125 32.734375 C 40.867188 32.394531 40.386719 32.070312 39.875 31.765625 C 39.191406 31.359375 38.519531 30.847656 37.871094 30.230469 C 37.371094 29.765625 36.914062 29.140625 36.511719 28.378906 C 36.167969 27.71875 35.902344 26.910156 35.738281 26.015625 C 35.566406 25.03125 35.480469 23.988281 35.488281 22.945312 C 35.480469 21.769531 35.601562 20.609375 35.839844 19.539062 C 36.074219 18.515625 36.417969 17.613281 36.847656 16.894531 C 37.308594 16.101562 37.839844 15.5 38.414062 15.132812 C 39.078125 14.753906 39.765625 14.582031 40.453125 14.621094 C 41.734375 14.671875 43.003906 15.007812 44.25 15.625 L 44.25 18.128906 C 43.617188 17.796875 42.976562 17.539062 42.328125 17.355469 C 41.757812 17.1875 41.183594 17.101562 40.609375 17.089844 C 39.664062 16.988281 38.726562 17.546875 37.957031 18.675781 C 37.285156 19.65625 36.890625 21.253906 36.90625 22.945312 C 36.902344 23.671875 36.960938 24.398438 37.089844 25.078125 C 37.21875 25.757812 37.425781 26.359375 37.691406 26.84375 C 38.015625 27.421875 38.386719 27.890625 38.785156 28.234375 C 39.34375 28.722656 39.917969 29.125 40.503906 29.4375 C 41.140625 29.824219 41.734375 30.242188 42.277344 30.6875 C 42.789062 31.089844 43.269531 31.648438 43.699219 32.347656 C 44.097656 33.007812 44.417969 33.835938 44.644531 34.78125 C 44.890625 35.886719 45.007812 37.09375 44.988281 38.308594 C 45.054688 40.679688 44.554688 42.964844 43.648438 44.445312 C 42.503906 46.007812 41.136719 46.738281 39.765625 46.527344 Z M 52.175781 46.4375 C 50.804688 46.636719 49.457031 45.59375 48.492188 43.582031 C 47.589844 41.226562 47.144531 38.277344 47.234375 35.292969 C 47.140625 32.148438 47.574219 29.035156 48.464844 26.472656 C 49.347656 24.347656 50.671875 23.203125 52.03125 23.386719 C 53.164062 23.230469 54.265625 24.160156 55.015625 25.90625 C 55.746094 28.023438 56.105469 30.585938 56.03125 33.175781 L 56.03125 34.796875 C 56.023438 35.179688 56 35.554688 55.953125 35.925781 L 48.578125 35.925781 C 48.550781 38.164062 48.90625 40.347656 49.585938 42.097656 C 50.320312 43.535156 51.320312 44.265625 52.332031 44.109375 C 52.855469 44.101562 53.378906 44.003906 53.898438 43.808594 C 54.464844 43.601562 55.019531 43.292969 55.558594 42.894531 L 55.660156 45.132812 C 55.105469 45.570312 54.527344 45.894531 53.941406 46.101562 C 53.359375 46.324219 52.769531 46.433594 52.175781 46.4375 Z M 51.988281 25.46875 C 49.875 25.46875 48.746094 28.253906 48.59375 33.828125 L 54.75 33.828125 C 54.835938 31.605469 54.601562 29.378906 54.078125 27.425781 C 53.59375 26.078125 52.800781 25.339844 51.988281 25.46875 Z M 59.078125 12.363281 L 60.4375 12.363281 L 60.4375 46.066406 L 59.078125 46.066406 Z M 68.476562 46.4375 C 67.105469 46.636719 65.757812 45.59375 64.792969 43.582031 C 63.894531 41.226562 63.449219 38.273438 63.546875 35.292969 C 63.453125 32.148438 63.886719 29.035156 64.777344 26.472656 C 65.660156 24.347656 66.980469 23.203125 68.339844 23.386719 C 69.472656 23.230469 70.578125 24.160156 71.328125 25.90625 C 72.042969 28.035156 72.386719 30.597656 72.300781 33.175781 L 72.300781 34.796875 C 72.292969 35.179688 72.265625 35.554688 72.222656 35.925781 L 64.878906 35.925781 C 64.851562 38.164062 65.207031 40.347656 65.886719 42.097656 C 66.625 43.539062 67.625 44.269531 68.640625 44.109375 C 69.167969 44.101562 69.691406 44.003906 70.207031 43.808594 C 70.773438 43.601562 71.328125 43.292969 71.867188 42.894531 L 71.972656 45.132812 C 71.414062 45.570312 70.839844 45.894531 70.25 46.101562 C 69.667969 46.324219 69.074219 46.4375 68.476562 46.4375 Z M 68.296875 25.46875 C 66.1875 25.46875 65.054688 28.253906 64.90625 33.828125 L 71.058594 33.828125 C 71.144531 31.605469 70.910156 29.378906 70.390625 27.425781 C 69.902344 26.078125 69.113281 25.339844 68.296875 25.46875 Z M 75.320312 23.597656 L 76.457031 23.597656 L 76.558594 26.226562 L 76.664062 26.226562 C 77.203125 25.695312 77.695312 25.238281 78.144531 24.851562 C 78.589844 24.460938 79 24.144531 79.375 23.898438 C 79.710938 23.664062 80.058594 23.480469 80.40625 23.351562 C 80.71875 23.242188 81.035156 23.191406 81.355469 23.191406 C 82.136719 23.070312 82.910156 23.621094 83.488281 24.707031 C 84.015625 26.003906 84.273438 27.667969 84.203125 29.347656 L 84.203125 46.121094 L 82.835938 46.121094 L 82.835938 30.246094 C 82.886719 28.992188 82.71875 27.742188 82.359375 26.71875 C 81.972656 25.957031 81.441406 25.570312 80.90625 25.660156 C 80.25 25.691406 79.597656 25.9375 78.980469 26.382812 C 78.191406 26.929688 77.421875 27.589844 76.679688 28.359375 L 76.679688 45.996094 L 75.320312 45.996094 Z M 88.4375 18.570312 C 88.195312 18.644531 87.953125 18.484375 87.773438 18.140625 C 87.597656 17.796875 87.503906 17.304688 87.527344 16.808594 C 87.527344 15.773438 87.933594 14.9375 88.4375 14.9375 C 88.941406 14.9375 89.351562 15.773438 89.351562 16.808594 C 89.371094 17.304688 89.28125 17.796875 89.101562 18.140625 C 88.925781 18.484375 88.679688 18.644531 88.4375 18.570312 Z M 87.75 23.597656 L 89.109375 23.597656 L 89.109375 46.066406 L 87.75 46.066406 Z M 95.375 46.472656 C 93.574219 46.472656 92.671875 44.433594 92.671875 40.351562 L 92.671875 23.597656 L 94.03125 23.597656 L 94.03125 39.472656 C 93.972656 40.707031 94.121094 41.949219 94.445312 43 C 94.796875 43.769531 95.300781 44.160156 95.8125 44.058594 C 96.546875 44.050781 97.269531 43.761719 97.949219 43.210938 C 98.664062 42.644531 99.410156 41.976562 100.179688 41.199219 L 100.179688 23.597656 L 101.5625 23.597656 L 101.5625 46.066406 L 100.425781 46.066406 L 100.324219 43.28125 L 100.246094 43.28125 L 98.757812 44.710938 C 98.332031 45.109375 97.9375 45.445312 97.570312 45.714844 C 97.226562 45.96875 96.871094 46.160156 96.511719 46.296875 C 96.136719 46.425781 95.753906 46.484375 95.375 46.472656 Z M 105.160156 23.597656 L 106.28125 23.597656 L 106.402344 26.226562 L 106.476562 26.226562 C 107.191406 25.34375 107.933594 24.570312 108.699219 23.914062 C 109.246094 23.457031 109.828125 23.210938 110.421875 23.191406 C 111.527344 22.894531 112.59375 24.183594 113.003906 26.3125 L 113.105469 26.3125 C 113.566406 25.726562 113.980469 25.238281 114.355469 24.851562 C 114.691406 24.496094 115.035156 24.179688 115.386719 23.898438 C 115.664062 23.664062 115.953125 23.484375 116.246094 23.351562 C 116.53125 23.242188 116.820312 23.1875 117.109375 23.191406 C 117.878906 23.078125 118.640625 23.613281 119.214844 24.671875 C 119.742188 25.96875 120 27.632812 119.929688 29.3125 L 119.929688 46.085938 L 118.589844 46.085938 L 118.589844 30.210938 C 118.648438 28.957031 118.480469 27.699219 118.113281 26.683594 C 117.722656 25.933594 117.195312 25.554688 116.660156 25.644531 C 116.132812 25.679688 115.617188 25.90625 115.128906 26.3125 C 114.484375 26.847656 113.863281 27.488281 113.269531 28.234375 L 113.269531 46.050781 L 111.890625 46.050781 L 111.890625 30.175781 C 111.953125 28.921875 111.785156 27.664062 111.417969 26.648438 C 111.027344 25.898438 110.5 25.519531 109.964844 25.609375 C 109.414062 25.640625 108.871094 25.878906 108.363281 26.3125 C 107.722656 26.84375 107.105469 27.488281 106.519531 28.234375 L 106.519531 46.066406 L 105.160156 46.066406 Z M 18.460938 37.953125 C 17.347656 37.886719 16.390625 39.582031 16.265625 41.851562 L 20.597656 42.027344 C 20.578125 39.546875 19.597656 37.800781 18.460938 37.953125 Z M 18.460938 37.953125 "/>
<path style=" stroke:none;fill-rule:nonzero;fill:rgb(0.392157%,65.490198%,10.980392%);fill-opacity:1;" d="M 27.59375 8.675781 L 18.558594 29.472656 C 18.503906 29.585938 18.429688 29.652344 18.355469 29.652344 C 18.277344 29.652344 18.203125 29.585938 18.152344 29.472656 L 13.539062 19.71875 C 13.457031 19.511719 13.457031 19.21875 13.539062 19.011719 L 15.0625 15.007812 C 15.113281 14.859375 15.199219 14.773438 15.285156 14.773438 C 15.375 14.773438 15.457031 14.859375 15.511719 15.007812 L 18.09375 20.863281 C 18.144531 20.992188 18.222656 21.066406 18.304688 21.066406 C 18.382812 21.066406 18.460938 20.992188 18.515625 20.863281 L 25.710938 0.652344 L 0.214844 0.015625 L 0 59.542969 L 27.757812 59.984375 L 27.972656 8.941406 Z M 7.796875 53.40625 C 5.988281 53.589844 4.21875 52.324219 2.859375 49.878906 C 2.769531 49.671875 2.769531 49.359375 2.859375 49.152344 L 3.933594 46.066406 C 3.96875 45.941406 4.027344 45.847656 4.097656 45.8125 C 4.167969 45.773438 4.242188 45.796875 4.304688 45.875 C 5.285156 47.742188 6.578125 48.773438 7.917969 48.765625 C 9.328125 48.765625 10.019531 47.425781 10.019531 46.015625 C 10.019531 41.640625 3.0625 44.640625 3.0625 35.328125 C 3.0625 31.21875 4.785156 27.796875 7.644531 27.796875 C 9.28125 27.675781 10.886719 28.777344 12.160156 30.898438 C 12.261719 31.109375 12.261719 31.445312 12.160156 31.65625 L 11.101562 34.675781 C 11.058594 34.796875 10.992188 34.875 10.917969 34.890625 C 10.84375 34.90625 10.773438 34.859375 10.714844 34.761719 C 9.777344 33.234375 8.609375 32.410156 7.410156 32.433594 C 6.308594 32.433594 5.6875 33.4375 5.6875 34.921875 C 5.6875 38.855469 12.625 36.226562 12.625 45.503906 C 12.625 49.984375 11.050781 53.40625 7.789062 53.40625 Z M 22.964844 44.816406 L 16.351562 45.308594 C 16.5 48.011719 17.617188 49.789062 18.867188 49.578125 C 19.65625 49.542969 20.421875 49.027344 21.070312 48.097656 L 22.1875 50.511719 C 21.113281 52.695312 19.875 53.488281 18.609375 53.421875 C 17.332031 53.570312 16.082031 52.601562 15.167969 50.761719 C 14.253906 48.921875 13.765625 46.378906 13.8125 43.757812 C 13.777344 41.199219 14.253906 38.722656 15.132812 36.90625 C 16.011719 35.085938 17.214844 34.082031 18.460938 34.128906 C 21.140625 34.128906 22.957031 38.238281 22.957031 44.25 Z M 22.964844 44.816406 "/>
</g>
</svg>
