<?xml version="1.0" encoding="UTF-8"?>
<svg xmlns="http://www.w3.org/2000/svg" xmlns:xlink="http://www.w3.org/1999/xlink" width="80px" height="60px" viewBox="0 0 120 60" version="1.1">
<g id="surface1">
<path style=" stroke:none;fill-rule:nonzero;fill:rgb(43.921569%,60.000002%,65.098041%);fill-opacity:1;" d="M 12.574219 2.761719 L 12.574219 5.535156 L 10.460938 5.535156 L 10.460938 7.339844 L 12.574219 7.339844 L 12.574219 12.863281 L 13.398438 12.863281 L 13.398438 7.339844 L 15.5625 7.339844 L 15.5625 5.535156 L 13.398438 5.535156 L 13.398438 0 L 12.574219 0 Z M 12.574219 2.761719 "/>
<path style=" stroke:none;fill-rule:nonzero;fill:rgb(92.156863%,56.862748%,17.254902%);fill-opacity:1;" d="M 5.667969 9.796875 L 5.667969 13.824219 L 2.472656 13.824219 L 2.472656 16.347656 L 5.667969 16.347656 L 5.667969 24.523438 L 6.855469 24.523438 L 6.855469 16.347656 L 10.101562 16.347656 L 10.101562 13.824219 L 6.855469 13.824219 L 6.855469 5.773438 L 5.667969 5.773438 Z M 5.667969 9.796875 "/>
<path style=" stroke:none;fill-rule:nonzero;fill:rgb(34.901962%,52.941179%,60.784316%);fill-opacity:1;" d="M 19.066406 9.796875 L 19.066406 13.824219 L 15.871094 13.824219 L 15.871094 16.472656 L 19.066406 16.472656 L 19.066406 24.523438 L 20.300781 24.523438 L 20.300781 16.472656 L 23.5 16.472656 L 23.5 13.824219 L 20.300781 13.824219 L 20.300781 5.773438 L 19.066406 5.773438 Z M 19.066406 9.796875 "/>
<path style=" stroke:none;fill-rule:nonzero;fill:rgb(90.980393%,46.27451%,17.254902%);fill-opacity:1;" d="M 12.265625 23.507812 L 12.265625 28.019531 L 8.707031 28.019531 L 8.707031 31.378906 L 12.265625 31.378906 L 12.265625 40.398438 L 13.707031 40.398438 L 13.707031 31.378906 L 17.261719 31.378906 L 17.261719 28.019531 L 13.707031 28.019531 L 13.707031 18.996094 L 12.265625 18.996094 Z M 12.265625 23.507812 "/>
<path style=" stroke:none;fill-rule:nonzero;fill:rgb(35.686275%,39.607844%,56.862748%);fill-opacity:1;" d="M 22.726562 25.785156 L 22.726562 28.613281 L 20.5625 28.613281 L 20.5625 30.902344 L 22.726562 30.902344 L 22.726562 36.550781 L 23.804688 36.550781 L 23.804688 30.902344 L 25.972656 30.902344 L 25.972656 28.613281 L 23.804688 28.613281 L 23.804688 22.964844 L 22.726562 22.964844 Z M 22.726562 25.785156 "/>
<path style=" stroke:none;fill-rule:nonzero;fill:rgb(43.921569%,60.000002%,65.098041%);fill-opacity:1;" d="M 2.113281 26.035156 L 2.113281 28.738281 L 0 28.738281 L 0 30.65625 L 2.113281 30.65625 L 2.113281 36.066406 L 2.9375 36.066406 L 2.9375 30.65625 L 5.101562 30.476562 L 5.101562 28.738281 L 2.9375 28.738281 L 2.9375 23.328125 L 2.113281 23.328125 Z M 2.113281 26.035156 "/>
<path style=" stroke:none;fill-rule:nonzero;fill:rgb(78.039217%,12.54902%,20.784314%);fill-opacity:1;" d="M 5.667969 38.773438 L 5.667969 42.796875 L 2.472656 42.796875 L 2.472656 45.449219 L 5.667969 45.449219 L 5.667969 53.5 L 6.902344 53.5 L 6.902344 45.449219 L 10.101562 45.449219 L 10.101562 42.796875 L 6.902344 42.796875 L 6.902344 34.75 L 5.667969 34.75 Z M 5.667969 38.773438 "/>
<path style=" stroke:none;fill-rule:nonzero;fill:rgb(12.156863%,26.666668%,49.411765%);fill-opacity:1;" d="M 19.066406 38.773438 L 19.066406 42.796875 L 15.871094 42.796875 L 15.871094 45.324219 L 19.066406 45.324219 L 19.066406 53.5 L 20.300781 53.5 L 20.300781 45.324219 L 23.5 45.324219 L 23.5 42.796875 L 20.300781 42.796875 L 20.300781 34.75 L 19.066406 34.75 Z M 19.066406 38.773438 "/>
<path style=" stroke:none;fill-rule:nonzero;fill:rgb(35.686275%,39.607844%,56.862748%);fill-opacity:1;" d="M 12.472656 49 L 12.472656 51.820312 L 10.308594 51.820312 L 10.308594 54.105469 L 12.472656 54.105469 L 12.472656 59.757812 L 13.550781 59.757812 L 13.550781 54.105469 L 15.71875 54.105469 L 15.71875 51.820312 L 13.550781 51.820312 L 13.550781 46.171875 L 12.472656 46.171875 Z M 12.472656 49 "/>
<path style=" stroke:none;fill-rule:nonzero;fill:rgb(12.156863%,26.666668%,49.411765%);fill-opacity:1;" d="M 79.046875 12.019531 L 79.046875 46.292969 L 77.398438 46.292969 L 77.398438 12.019531 Z M 38.132812 16.832031 L 38.132812 27.769531 L 42.5625 27.769531 L 42.5625 31.378906 L 38.132812 31.378906 L 38.132812 43.160156 L 36.484375 43.160156 L 36.484375 31.378906 L 32.054688 31.378906 L 32.054688 27.769531 L 36.484375 27.769531 L 36.484375 16.832031 Z M 89.664062 24.34375 C 89.960938 24.375 90.339844 24.488281 90.515625 24.589844 C 90.683594 24.691406 90.960938 24.929688 91.128906 25.121094 C 91.300781 25.300781 91.582031 25.695312 91.75 26 C 91.921875 26.304688 92.160156 26.867188 92.285156 27.25 C 92.410156 27.632812 92.589844 28.332031 92.683594 28.796875 C 92.78125 29.257812 92.90625 30.070312 92.964844 30.597656 C 93.019531 31.128906 93.085938 32.199219 93.140625 34.386719 L 87.445312 34.386719 L 87.480469 34.839844 C 87.496094 35.085938 87.558594 35.617188 87.605469 36.011719 C 87.660156 36.40625 87.792969 37.027344 87.898438 37.375 C 88.003906 37.726562 88.164062 38.140625 88.242188 38.289062 C 88.332031 38.433594 88.503906 38.683594 88.632812 38.839844 C 88.757812 38.988281 88.976562 39.179688 89.121094 39.269531 C 89.265625 39.359375 89.652344 39.4375 89.996094 39.4375 C 90.335938 39.4375 90.828125 39.359375 91.082031 39.257812 C 91.335938 39.15625 91.695312 38.953125 91.878906 38.820312 C 92.058594 38.683594 92.300781 38.46875 92.40625 38.34375 C 92.511719 38.222656 92.621094 38.109375 92.652344 38.109375 C 92.683594 38.109375 92.703125 38.738281 92.703125 41.355469 L 92.703125 41.714844 L 92.421875 42.019531 C 92.261719 42.191406 91.9375 42.460938 91.6875 42.628906 C 91.4375 42.789062 90.980469 42.992188 90.667969 43.070312 C 90.242188 43.171875 89.953125 43.171875 89.507812 43.070312 C 89.179688 42.992188 88.703125 42.789062 88.449219 42.617188 C 88.195312 42.449219 87.828125 42.109375 87.632812 41.863281 C 87.4375 41.613281 87.105469 41.039062 86.894531 40.578125 C 86.679688 40.117188 86.410156 39.359375 86.285156 38.898438 C 86.160156 38.433594 86.007812 37.644531 85.933594 37.148438 C 85.863281 36.652344 85.777344 35.785156 85.742188 35.234375 C 85.703125 34.613281 85.695312 33.746094 85.714844 33.070312 C 85.726562 32.4375 85.789062 31.492188 85.847656 30.960938 C 85.90625 30.429688 86.046875 29.5625 86.15625 29.03125 C 86.265625 28.503906 86.472656 27.746094 86.605469 27.351562 C 86.746094 26.957031 87.019531 26.347656 87.214844 26 C 87.414062 25.648438 87.746094 25.210938 87.949219 25.007812 C 88.152344 24.804688 88.503906 24.566406 88.722656 24.464844 C 88.988281 24.351562 89.304688 24.308594 89.664062 24.34375 Z M 106.769531 24.160156 L 106.769531 30.203125 C 106.769531 33.53125 106.753906 37.511719 106.691406 41.851562 L 106.28125 42.144531 C 106.054688 42.300781 105.597656 42.550781 105.261719 42.675781 C 104.835938 42.855469 104.425781 42.921875 103.875 42.921875 C 103.4375 42.921875 102.933594 42.867188 102.75 42.796875 C 102.570312 42.71875 102.207031 42.503906 101.953125 42.3125 C 101.679688 42.109375 101.324219 41.714844 101.105469 41.378906 C 100.886719 41.050781 100.589844 40.476562 100.4375 40.082031 C 100.289062 39.699219 100.078125 39.023438 99.976562 38.59375 C 99.875 38.164062 99.738281 37.375 99.667969 36.855469 C 99.570312 36.101562 99.539062 35.515625 99.515625 34.152344 C 99.5 33.058594 99.515625 32.085938 99.554688 31.558594 C 99.585938 31.09375 99.675781 30.316406 99.746094 29.820312 C 99.8125 29.324219 99.972656 28.535156 100.097656 28.074219 C 100.214844 27.613281 100.476562 26.878906 100.671875 26.449219 C 100.894531 25.976562 101.179688 25.492188 101.417969 25.222656 C 101.628906 24.984375 101.933594 24.691406 102.109375 24.578125 C 102.277344 24.476562 102.695312 24.351562 103.035156 24.320312 C 103.492188 24.273438 103.753906 24.320312 104.039062 24.453125 C 104.253906 24.566406 104.574219 24.816406 104.761719 25.019531 C 104.945312 25.210938 105.101562 25.378906 105.109375 25.367188 C 105.117188 25.367188 105.121094 25.140625 105.121094 24.851562 L 105.121094 24.160156 Z M 55.804688 24.160156 L 55.804688 32.464844 C 55.800781 35.992188 55.78125 39.457031 55.730469 41.851562 L 55.316406 42.144531 C 55.089844 42.300781 54.617188 42.550781 54.261719 42.699219 C 53.71875 42.910156 53.472656 42.933594 52.691406 42.890625 C 51.964844 42.84375 51.671875 42.777344 51.351562 42.585938 C 51.121094 42.4375 50.726562 42.089844 50.472656 41.796875 C 50.203125 41.480469 49.882812 40.984375 49.699219 40.613281 C 49.53125 40.25 49.292969 39.609375 49.175781 39.191406 C 49.058594 38.761719 48.898438 38.085938 48.832031 37.691406 C 48.765625 37.296875 48.664062 36.507812 48.617188 35.953125 C 48.546875 35.144531 48.535156 34.546875 48.554688 33.125 C 48.578125 31.761719 48.609375 31.09375 48.691406 30.417969 C 48.753906 29.921875 48.898438 29.109375 49.007812 28.613281 C 49.121094 28.121094 49.339844 27.363281 49.503906 26.945312 C 49.671875 26.519531 49.945312 25.953125 50.113281 25.683594 C 50.28125 25.425781 50.558594 25.074219 50.730469 24.917969 C 50.898438 24.757812 51.207031 24.546875 51.414062 24.453125 C 51.621094 24.363281 52.003906 24.285156 52.265625 24.285156 C 52.527344 24.285156 52.902344 24.375 53.105469 24.464844 C 53.300781 24.566406 53.613281 24.816406 53.800781 25.019531 C 53.980469 25.210938 54.140625 25.378906 54.144531 25.367188 C 54.148438 25.367188 54.160156 25.097656 54.160156 24.769531 L 54.160156 24.160156 Z M 65.441406 15.625 L 65.441406 21.355469 C 65.441406 24.890625 65.457031 25.117188 65.53125 25.0625 C 65.585938 25.019531 65.835938 24.859375 66.089844 24.691406 C 66.390625 24.5 66.757812 24.375 67.144531 24.320312 C 67.585938 24.273438 67.847656 24.308594 68.171875 24.453125 C 68.453125 24.578125 68.78125 24.847656 69.074219 25.1875 C 69.328125 25.480469 69.664062 25.976562 69.824219 26.304688 C 69.976562 26.621094 70.222656 27.285156 70.363281 27.78125 C 70.507812 28.277344 70.683594 29.066406 70.761719 29.550781 C 70.84375 30.023438 70.941406 30.914062 70.992188 31.535156 C 71.046875 32.347656 71.0625 33.046875 71.042969 34.152344 C 71.027344 34.972656 70.976562 36 70.929688 36.429688 C 70.886719 36.855469 70.769531 37.589844 70.679688 38.050781 C 70.585938 38.515625 70.40625 39.226562 70.277344 39.621094 C 70.152344 40.015625 69.894531 40.601562 69.714844 40.925781 C 69.535156 41.253906 69.210938 41.707031 69 41.929688 C 68.789062 42.167969 68.4375 42.460938 68.226562 42.597656 C 67.894531 42.808594 67.683594 42.84375 66.734375 42.855469 C 65.835938 42.867188 65.542969 42.820312 65.1875 42.640625 C 64.945312 42.515625 64.546875 42.28125 64.308594 42.121094 C 64.066406 41.964844 63.855469 41.785156 63.835938 41.738281 C 63.820312 41.695312 63.792969 35.808594 63.785156 28.648438 L 63.765625 15.625 Z M 114.863281 24.648438 L 114.859375 30.691406 L 114.859375 31.164062 C 114.859375 31.242188 114.859375 31.316406 114.859375 31.394531 L 114.859375 32.246094 C 114.859375 35.996094 114.871094 36.71875 114.933594 37.296875 L 114.941406 37.355469 C 114.945312 37.40625 114.953125 37.457031 114.960938 37.511719 C 115.019531 37.960938 115.136719 38.492188 115.234375 38.761719 C 115.324219 39.011719 115.515625 39.347656 115.660156 39.507812 C 115.800781 39.664062 116.066406 39.84375 116.25 39.902344 C 116.445312 39.96875 116.726562 39.96875 116.921875 39.902344 C 117.105469 39.84375 117.375 39.664062 117.511719 39.507812 C 117.65625 39.347656 117.847656 39.011719 117.941406 38.761719 C 118.035156 38.492188 118.15625 37.960938 118.214844 37.511719 C 118.222656 37.453125 118.230469 37.394531 118.234375 37.335938 L 118.238281 37.289062 C 118.300781 36.695312 118.3125 35.621094 118.3125 28.941406 L 118.3125 28.402344 C 118.3125 28.308594 118.3125 28.21875 118.3125 28.125 L 118.316406 26.640625 C 118.316406 26.535156 118.316406 26.429688 118.316406 26.324219 L 118.316406 24.648438 L 120 24.648438 L 119.988281 31.175781 C 119.984375 36.621094 119.980469 37.554688 119.914062 38.171875 L 119.910156 38.226562 C 119.90625 38.253906 119.902344 38.28125 119.898438 38.304688 L 119.882812 38.414062 C 119.828125 38.808594 119.707031 39.40625 119.617188 39.730469 C 119.523438 40.070312 119.367188 40.53125 119.253906 40.78125 C 119.148438 41.027344 118.917969 41.421875 118.75 41.660156 C 118.582031 41.898438 118.257812 42.222656 118.03125 42.394531 C 117.773438 42.585938 117.425781 42.730469 117.105469 42.789062 C 116.816406 42.820312 116.355469 42.820312 116.074219 42.777344 C 115.75 42.730469 115.402344 42.585938 115.144531 42.394531 C 114.914062 42.222656 114.59375 41.898438 114.421875 41.660156 C 114.253906 41.421875 114.027344 41.027344 113.917969 40.78125 C 113.8125 40.53125 113.648438 40.070312 113.558594 39.730469 C 113.472656 39.40625 113.351562 38.808594 113.292969 38.414062 L 113.28125 38.332031 C 113.273438 38.28125 113.269531 38.230469 113.261719 38.171875 L 113.253906 38.117188 C 113.191406 37.496094 113.1875 36.429688 113.171875 31.175781 L 113.152344 24.648438 Z M 103.472656 27.90625 C 103.289062 27.90625 103.011719 27.996094 102.855469 28.085938 C 102.699219 28.1875 102.457031 28.414062 102.320312 28.59375 C 102.179688 28.773438 101.976562 29.144531 101.867188 29.425781 C 101.757812 29.707031 101.613281 30.203125 101.542969 30.542969 C 101.46875 30.871094 101.378906 31.480469 101.335938 31.894531 C 101.292969 32.300781 101.257812 33.101562 101.257812 33.667969 C 101.257812 34.230469 101.292969 35.03125 101.335938 35.4375 C 101.378906 35.855469 101.460938 36.417969 101.523438 36.699219 C 101.585938 36.980469 101.742188 37.476562 101.871094 37.792969 C 102.003906 38.121094 102.214844 38.503906 102.339844 38.648438 C 102.46875 38.808594 102.699219 39.023438 102.855469 39.125 C 103.035156 39.246094 103.328125 39.316406 103.667969 39.316406 C 103.957031 39.316406 104.363281 39.257812 104.566406 39.191406 C 104.773438 39.125 104.96875 39.023438 104.996094 38.976562 C 105.042969 38.921875 105.066406 37.464844 105.078125 33.980469 L 105.09375 29.054688 C 104.574219 28.433594 104.289062 28.175781 104.113281 28.074219 C 103.945312 27.972656 103.660156 27.894531 103.472656 27.90625 Z M 51.890625 28.085938 C 51.734375 28.1875 51.496094 28.414062 51.355469 28.59375 C 51.21875 28.773438 51.015625 29.144531 50.90625 29.425781 C 50.792969 29.707031 50.644531 30.203125 50.578125 30.542969 C 50.507812 30.871094 50.414062 31.480469 50.371094 31.894531 C 50.328125 32.300781 50.296875 33.046875 50.296875 33.542969 C 50.296875 34.039062 50.320312 34.769531 50.347656 35.164062 C 50.382812 35.558594 50.46875 36.214844 50.550781 36.609375 C 50.644531 37.082031 50.800781 37.566406 50.996094 37.996094 C 51.1875 38.414062 51.414062 38.761719 51.609375 38.941406 C 51.851562 39.167969 52.042969 39.234375 52.539062 39.292969 C 52.886719 39.328125 53.328125 39.28125 53.566406 39.203125 C 53.789062 39.125 54 39.023438 54.035156 38.976562 C 54.074219 38.921875 54.101562 37.351562 54.125 33.992188 L 54.160156 29.101562 C 53.738281 28.558594 53.503906 28.3125 53.359375 28.199219 C 53.21875 28.074219 52.894531 27.960938 52.636719 27.9375 C 52.320312 27.90625 52.085938 27.949219 51.890625 28.085938 Z M 67.015625 27.90625 C 66.820312 27.917969 66.558594 27.972656 66.449219 28.027344 C 66.335938 28.085938 66.070312 28.277344 65.855469 28.457031 L 65.46875 28.773438 L 65.46875 38.773438 C 66.277344 39.269531 66.449219 39.304688 66.988281 39.269531 C 67.515625 39.234375 67.6875 39.179688 67.941406 38.953125 C 68.109375 38.796875 68.34375 38.503906 68.457031 38.289062 C 68.570312 38.085938 68.734375 37.703125 68.820312 37.441406 C 68.90625 37.183594 69.03125 36.644531 69.09375 36.25 C 69.160156 35.855469 69.238281 35.097656 69.265625 34.566406 C 69.308594 33.847656 69.308594 33.351562 69.261719 32.582031 C 69.222656 31.894531 69.140625 31.277344 69.023438 30.691406 C 68.925781 30.203125 68.757812 29.605469 68.652344 29.359375 C 68.546875 29.109375 68.355469 28.761719 68.226562 28.59375 C 68.101562 28.414062 67.855469 28.1875 67.683594 28.085938 C 67.515625 27.972656 67.210938 27.894531 67.015625 27.90625 Z M 89.09375 28.074219 C 88.941406 28.175781 88.691406 28.433594 88.535156 28.648438 C 88.382812 28.863281 88.167969 29.28125 88.050781 29.574219 C 87.941406 29.878906 87.792969 30.375 87.726562 30.691406 C 87.660156 31.003906 87.601562 31.308594 87.601562 31.378906 C 87.601562 31.453125 88.1875 31.496094 89.277344 31.5 L 91.289062 31.5 C 91.234375 30.609375 91.1875 30.171875 91.148438 29.933594 C 91.105469 29.707031 90.980469 29.28125 90.871094 29 C 90.734375 28.648438 90.570312 28.402344 90.386719 28.230469 C 90.226562 28.109375 89.9375 27.972656 89.742188 27.9375 C 89.511719 27.917969 89.277344 27.960938 89.09375 28.074219 Z M 89.09375 28.074219 "/>
</g>
</svg>
